<?xml version="1.0" standalone="no"?>
<!DOCTYPE svg PUBLIC "-//W3C//DTD SVG 20010904//EN"
 "http://www.w3.org/TR/2001/REC-SVG-20010904/DTD/svg10.dtd">
<svg version="1.0" xmlns="http://www.w3.org/2000/svg"
 width="52.000000pt" height="53.000000pt" viewBox="0 0 52.000000 53.000000"
 preserveAspectRatio="xMidYMid meet">
<metadata>
Created by potrace 1.11, written by Peter Selinger 2001-2013
</metadata>
<g transform="translate(0.000000,53.000000) scale(0.100000,-0.100000)"
fill="#000000" stroke="none">
<path d="M0 265 l0 -255 255 0 255 0 0 255 0 255 -255 0 -255 0 0 -255z m300
21 c0 -118 -1 -126 -22 -140 -30 -21 -98 -21 -98 -1 0 10 10 15 33 15 51 0 57
13 57 122 l0 98 -30 0 c-20 0 -30 5 -30 15 0 11 12 15 45 15 l45 0 0 -124z"/>
</g>
</svg>
